<svg
  xmlns="http://www.w3.org/2000/svg"
  viewBox="0 0 300 80"
  class="app-icon fill-black transition-transform hover:rotate-12 dark:fill-white"
  width="30vw" height="0vw"
  preserveAspectRatio="xMidYMid meet"
>
  <defs>
    <style>
      <![CDATA[
      @keyframes spin {
        from { transform: rotate(0deg); }
        to { transform: rotate(360deg); }
      }
      .spinner {
        animation: spin 8s linear infinite;
      }
      .highlight-spin {
        animation: spin 10s linear infinite;
      }
      ]]>
    </style>
    <linearGradient id="gradient1" x1="0%" y1="0%" x2="100%" y2="100%">
      <stop offset="40%" stop-color="white" stop-opacity="1" />
      <stop offset="50%" stop-color="#b8b8b8" stop-opacity="1" /> 
      <stop offset="60%" stop-color="#a3a3a3" stop-opacity="1" />
      <stop offset="100%" stop-color="white" stop-opacity="1" />
    </linearGradient>
  </defs>

  <!-- Icon Group - Centered -->
  <g transform="translate(40, 40)">
    <!-- Outer thin white circle -->
    <circle
      cx="0"
      cy="0"
      r="39"
      fill="none"
      stroke="#FFFFFF"
      stroke-width="0.5"
    />

    <!-- Background circle -->
    <circle cx="0" cy="0" r="38" fill="#000000" />

    <!-- Spinning lines -->
    <g class="spinner">
      <line
        x1="16"
        y1="0"
        x2="32"
        y2="0"
        stroke="#FFFFFF"
        stroke-width="2.5"
        transform="rotate(0)"
      />
      <line
        x1="16"
        y1="0"
        x2="32"
        y2="0"
        stroke="#FFFFFF"
        stroke-width="2.5"
        transform="rotate(8.18)"
      />
      <line
        x1="16"
        y1="0"
        x2="32"
        y2="0"
        stroke="#FFFFFF"
        stroke-width="2.5"
        transform="rotate(16.36)"
      />
      <line
        x1="16"
        y1="0"
        x2="32"
        y2="0"
        stroke="#FFFFFF"
        stroke-width="2.5"
        transform="rotate(24.54)"
      />
      <line
        x1="16"
        y1="0"
        x2="32"
        y2="0"
        stroke="#FFFFFF"
        stroke-width="2.5"
        transform="rotate(32.72)"
      />
      <line
        x1="16"
        y1="0"
        x2="32"
        y2="0"
        stroke="#FFFFFF"
        stroke-width="2.5"
        transform="rotate(40.9)"
      />
      <line
        x1="16"
        y1="0"
        x2="32"
        y2="0"
        stroke="#FFFFFF"
        stroke-width="2.5"
        transform="rotate(49.08)"
      />
      <line
        x1="16"
        y1="0"
        x2="32"
        y2="0"
        stroke="#FFFFFF"
        stroke-width="2.5"
        transform="rotate(57.26)"
      />
      <line
        x1="16"
        y1="0"
        x2="32"
        y2="0"
        stroke="#FFFFFF"
        stroke-width="2.5"
        transform="rotate(65.44)"
      />
      <line
        x1="16"
        y1="0"
        x2="32"
        y2="0"
        stroke="#FFFFFF"
        stroke-width="2.5"
        transform="rotate(73.62)"
      />
      <line
        x1="16"
        y1="0"
        x2="32"
        y2="0"
        stroke="#FFFFFF"
        stroke-width="2.5"
        transform="rotate(81.8)"
      />
      <line
        x1="16"
        y1="0"
        x2="32"
        y2="0"
        stroke="#FFFFFF"
        stroke-width="2.5"
        transform="rotate(90)"
      />
      <line
        x1="16"
        y1="0"
        x2="32"
        y2="0"
        stroke="#FFFFFF"
        stroke-width="2.5"
        transform="rotate(98.18)"
      />
      <line
        x1="16"
        y1="0"
        x2="32"
        y2="0"
        stroke="#FFFFFF"
        stroke-width="2.5"
        transform="rotate(106.36)"
      />
      <line
        x1="16"
        y1="0"
        x2="32"
        y2="0"
        stroke="#FFFFFF"
        stroke-width="2.5"
        transform="rotate(114.54)"
      />
      <line
        x1="16"
        y1="0"
        x2="32"
        y2="0"
        stroke="#FFFFFF"
        stroke-width="2.5"
        transform="rotate(122.72)"
      />
      <line
        x1="16"
        y1="0"
        x2="32"
        y2="0"
        stroke="#FFFFFF"
        stroke-width="2.5"
        transform="rotate(130.9)"
      />
      <line
        x1="16"
        y1="0"
        x2="32"
        y2="0"
        stroke="#FFFFFF"
        stroke-width="2.5"
        transform="rotate(139.08)"
      />
      <line
        x1="16"
        y1="0"
        x2="32"
        y2="0"
        stroke="#FFFFFF"
        stroke-width="2.5"
        transform="rotate(147.26)"
      />
      <line
        x1="16"
        y1="0"
        x2="32"
        y2="0"
        stroke="#FFFFFF"
        stroke-width="2.5"
        transform="rotate(155.44)"
      />
      <line
        x1="16"
        y1="0"
        x2="32"
        y2="0"
        stroke="#FFFFFF"
        stroke-width="2.5"
        transform="rotate(163.62)"
      />
      <line
        x1="16"
        y1="0"
        x2="32"
        y2="0"
        stroke="#FFFFFF"
        stroke-width="2.5"
        transform="rotate(171.8)"
      />
      <line
        x1="16"
        y1="0"
        x2="32"
        y2="0"
        stroke="#FFFFFF"
        stroke-width="2.5"
        transform="rotate(180)"
      />
      <line
        x1="16"
        y1="0"
        x2="32"
        y2="0"
        stroke="#FFFFFF"
        stroke-width="2.5"
        transform="rotate(188.18)"
      />
      <line
        x1="16"
        y1="0"
        x2="32"
        y2="0"
        stroke="#FFFFFF"
        stroke-width="2.5"
        transform="rotate(196.36)"
      />
      <line
        x1="16"
        y1="0"
        x2="32"
        y2="0"
        stroke="#FFFFFF"
        stroke-width="2.5"
        transform="rotate(204.54)"
      />
      <line
        x1="16"
        y1="0"
        x2="32"
        y2="0"
        stroke="#FFFFFF"
        stroke-width="2.5"
        transform="rotate(212.72)"
      />
      <line
        x1="16"
        y1="0"
        x2="32"
        y2="0"
        stroke="#FFFFFF"
        stroke-width="2.5"
        transform="rotate(220.9)"
      />
      <line
        x1="16"
        y1="0"
        x2="32"
        y2="0"
        stroke="#FFFFFF"
        stroke-width="2.5"
        transform="rotate(229.08)"
      />
      <line
        x1="16"
        y1="0"
        x2="32"
        y2="0"
        stroke="#FFFFFF"
        stroke-width="2.5"
        transform="rotate(237.26)"
      />
      <line
        x1="16"
        y1="0"
        x2="32"
        y2="0"
        stroke="#FFFFFF"
        stroke-width="2.5"
        transform="rotate(245.44)"
      />
      <line
        x1="16"
        y1="0"
        x2="32"
        y2="0"
        stroke="#FFFFFF"
        stroke-width="2.5"
        transform="rotate(253.62)"
      />
      <line
        x1="16"
        y1="0"
        x2="32"
        y2="0"
        stroke="#FFFFFF"
        stroke-width="2.5"
        transform="rotate(261.8)"
      />
      <line
        x1="16"
        y1="0"
        x2="32"
        y2="0"
        stroke="#FFFFFF"
        stroke-width="2.5"
        transform="rotate(270)"
      />
      <line
        x1="16"
        y1="0"
        x2="32"
        y2="0"
        stroke="#FFFFFF"
        stroke-width="2.5"
        transform="rotate(278.18)"
      />
      <line
        x1="16"
        y1="0"
        x2="32"
        y2="0"
        stroke="#FFFFFF"
        stroke-width="2.5"
        transform="rotate(286.36)"
      />
      <line
        x1="16"
        y1="0"
        x2="32"
        y2="0"
        stroke="#FFFFFF"
        stroke-width="2.5"
        transform="rotate(294.54)"
      />
      <line
        x1="16"
        y1="0"
        x2="32"
        y2="0"
        stroke="#FFFFFF"
        stroke-width="2.5"
        transform="rotate(302.72)"
      />
      <line
        x1="16"
        y1="0"
        x2="32"
        y2="0"
        stroke="#FFFFFF"
        stroke-width="2.5"
        transform="rotate(310.9)"
      />
      <line
        x1="16"
        y1="0"
        x2="32"
        y2="0"
        stroke="#FFFFFF"
        stroke-width="2.5"
        transform="rotate(319.08)"
      />
      <line
        x1="16"
        y1="0"
        x2="32"
        y2="0"
        stroke="#FFFFFF"
        stroke-width="2.5"
        transform="rotate(327.26)"
      />
      <line
        x1="16"
        y1="0"
        x2="32"
        y2="0"
        stroke="#FFFFFF"
        stroke-width="2.5"
        transform="rotate(335.44)"
      />
      <line
        x1="16"
        y1="0"
        x2="32"
        y2="0"
        stroke="#FFFFFF"
        stroke-width="2.5"
        transform="rotate(343.62)"
      />
      <line
        x1="16"
        y1="0"
        x2="32"
        y2="0"
        stroke="#FFFFFF"
        stroke-width="2.5"
        transform="rotate(351.8)"
      />
    </g>

    <!-- Spinning highlight circles -->
    <g transform="rotate(-90)">
      <g class="highlight-spin">
        <g transform="translate(8, -5)">
          <circle cx="0" cy="0" r="4" fill="#FFFFFF" opacity="0.6" />
          <circle cx="0" cy="0" r="1.5" fill="#FFFFFF" opacity="0.8" />
        </g>
      </g>
    </g>
  </g>
  <text x="100" y="50" font-family="Helvetica, Arial, sans-serif" font-size="50" font-weight="700" fill="url(#gradient1)"  alignment-baseline="middle" text-anchor="start">
    Scam AI
  </text>
</svg>
