<svg width="432" height="100" viewBox="78 170 270 70" fill="none" xmlns="http://www.w3.org/2000/svg">
<rect width="1584" height="396" fill="#1E1E1E"/>
<path d="M353.498 235.052C352.159 235.052 350.118 234.714 350.118 232.374V229.449H349.494V228.149H350.118V226.719H351.418V228.149H353.082V229.449H351.418V232.075C351.418 233.635 352.575 233.752 353.498 233.752V235.052ZM354.84 235V230.775C354.84 229.202 355.815 227.993 357.427 227.993C358.285 228.006 358.987 228.409 359.364 228.994C359.754 228.396 360.456 227.993 361.314 227.993C362.926 228.006 363.901 229.202 363.888 230.775V235H362.588V230.775C362.588 229.969 362.107 229.293 361.314 229.293C360.508 229.293 360.014 229.982 360.014 230.775V235H358.714V230.775C358.714 229.969 358.233 229.293 357.427 229.293C356.634 229.293 356.14 229.982 356.14 230.775V235H354.84Z" fill="white"/>
<path d="M86.0227 218.472L88.5427 212.352C99.3427 218.184 112.735 219.552 112.735 211.776C112.807 204.432 86.3107 207.456 87.0307 193.128C87.8227 181.104 105.895 178.8 119.431 188.088L116.479 193.2C107.839 186.36 94.8787 187.152 94.5187 193.56C94.1587 201.192 120.151 198.816 120.151 211.416C120.151 222.648 107.191 228.84 86.0227 218.472ZM144.87 223.512C134.07 223.512 125.07 214.368 125.07 203.28C125.07 191.112 134.862 183.12 144.87 183.12C151.854 183.12 158.334 186.864 161.142 192.192L155.886 197.16C153.726 192.192 148.686 190.32 145.086 190.32C138.894 190.32 132.27 195.072 132.27 203.28C132.27 210.408 138.03 216.312 145.086 216.312C149.91 216.312 154.446 213.288 155.958 209.544L161.214 214.44C158.334 219.84 151.854 223.512 144.87 223.512ZM185.941 222.144C175.069 222.144 166.285 213.36 166.285 202.56C166.285 191.76 175.069 182.976 185.941 182.976C196.669 182.976 205.453 191.76 205.453 202.56V222.216H198.253V215.304C195.805 219.336 191.197 222.144 185.941 222.144ZM185.941 214.944C192.709 214.944 198.253 209.4 198.253 202.56C198.253 195.72 192.709 190.176 185.941 190.176C179.029 190.176 173.485 195.72 173.485 202.56C173.485 209.4 179.029 214.944 185.941 214.944ZM215.77 222V198.6C215.77 189.888 221.17 183.192 230.098 183.192C234.85 183.264 238.738 185.496 240.826 188.736C242.986 185.424 246.874 183.192 251.626 183.192C260.554 183.264 265.954 189.888 265.882 198.6V222H258.682V198.6C258.682 194.136 256.018 190.392 251.626 190.392C247.162 190.392 244.426 194.208 244.426 198.6V222H237.226V198.6C237.226 194.136 234.562 190.392 230.098 190.392C225.706 190.392 222.97 194.208 222.97 198.6V222H215.77ZM278.233 222C276.289 222 274.705 220.416 274.705 218.472C274.705 216.456 276.289 214.872 278.233 214.872C280.249 214.872 281.833 216.456 281.833 218.472C281.833 220.416 280.249 222 278.233 222ZM308.777 222.144C297.905 222.144 289.121 213.36 289.121 202.56C289.121 191.76 297.905 182.976 308.777 182.976C319.505 182.976 328.289 191.76 328.289 202.56V222.216H321.089V215.304C318.641 219.336 314.033 222.144 308.777 222.144ZM308.777 214.944C315.545 214.944 321.089 209.4 321.089 202.56C321.089 195.72 315.545 190.176 308.777 190.176C301.865 190.176 296.321 195.72 296.321 202.56C296.321 209.4 301.865 214.944 308.777 214.944ZM341.774 179.52C339.614 179.52 337.742 177.504 337.742 175.416C337.742 173.184 339.614 171.312 341.774 171.312C344.078 171.312 345.95 173.184 345.95 175.416C345.95 177.504 344.078 179.52 341.774 179.52ZM338.39 222V184.056H345.158V222H338.39Z" fill="white"/>
<path d="M78 200L274 211" stroke="#1E1E1E" stroke-width="3" stroke-linecap="round"/>
</svg>