<svg width="279" height="82" viewBox="0 0 279 82" fill="none" xmlns="http://www.w3.org/2000/svg">
<path d="M8.02266 66.472L10.5427 60.352C21.3427 66.184 34.7347 67.552 34.7347 59.776C34.8067 52.432 8.31066 55.456 9.03066 41.128C9.82266 29.104 27.8947 26.8 41.4307 36.088L38.4787 41.2C29.8387 34.36 16.8787 35.152 16.5187 41.56C16.1587 49.192 42.1507 46.816 42.1507 59.416C42.1507 70.648 29.1907 76.84 8.02266 66.472ZM66.8697 71.512C56.0697 71.512 47.0697 62.368 47.0697 51.28C47.0697 39.112 56.8617 31.12 66.8697 31.12C73.8537 31.12 80.3337 34.864 83.1417 40.192L77.8857 45.16C75.7257 40.192 70.6857 38.32 67.0857 38.32C60.8937 38.32 54.2697 43.072 54.2697 51.28C54.2697 58.408 60.0297 64.312 67.0857 64.312C71.9097 64.312 76.4457 61.288 77.9577 57.544L83.2137 62.44C80.3337 67.84 73.8537 71.512 66.8697 71.512ZM107.941 70.144C97.0687 70.144 88.2847 61.36 88.2847 50.56C88.2847 39.76 97.0687 30.976 107.941 30.976C118.669 30.976 127.453 39.76 127.453 50.56V70.216H120.253V63.304C117.805 67.336 113.197 70.144 107.941 70.144ZM107.941 62.944C114.709 62.944 120.253 57.4 120.253 50.56C120.253 43.72 114.709 38.176 107.941 38.176C101.029 38.176 95.4847 43.72 95.4847 50.56C95.4847 57.4 101.029 62.944 107.941 62.944ZM137.77 70V46.6C137.77 37.888 143.17 31.192 152.098 31.192C156.85 31.264 160.738 33.496 162.826 36.736C164.986 33.424 168.874 31.192 173.626 31.192C182.554 31.264 187.954 37.888 187.882 46.6V70H180.682V46.6C180.682 42.136 178.018 38.392 173.626 38.392C169.162 38.392 166.426 42.208 166.426 46.6V70H159.226V46.6C159.226 42.136 156.562 38.392 152.098 38.392C147.706 38.392 144.97 42.208 144.97 46.6V70H137.77ZM200.233 70C198.289 70 196.705 68.416 196.705 66.472C196.705 64.456 198.289 62.872 200.233 62.872C202.249 62.872 203.833 64.456 203.833 66.472C203.833 68.416 202.249 70 200.233 70ZM230.777 70.144C219.905 70.144 211.121 61.36 211.121 50.56C211.121 39.76 219.905 30.976 230.777 30.976C241.505 30.976 250.289 39.76 250.289 50.56V70.216H243.089V63.304C240.641 67.336 236.033 70.144 230.777 70.144ZM230.777 62.944C237.545 62.944 243.089 57.4 243.089 50.56C243.089 43.72 237.545 38.176 230.777 38.176C223.865 38.176 218.321 43.72 218.321 50.56C218.321 57.4 223.865 62.944 230.777 62.944ZM263.774 27.52C261.614 27.52 259.742 25.504 259.742 23.416C259.742 21.184 261.614 19.312 263.774 19.312C266.078 19.312 267.95 21.184 267.95 23.416C267.95 25.504 266.078 27.52 263.774 27.52ZM260.39 70V32.056H267.158V70H260.39Z" fill="white"/>
</svg>