<svg width="260" height="58" viewBox="0 0 260 58" fill="none" xmlns="http://www.w3.org/2000/svg">
<path d="M0.0226563 47.472L2.54266 41.352C13.3427 47.184 26.7347 48.552 26.7347 40.776C26.8067 33.432 0.310656 36.456 1.03066 22.128C1.82266 10.104 19.8947 7.8 33.4307 17.088L30.4787 22.2C21.8387 15.36 8.87866 16.152 8.51866 22.56C8.15866 30.192 34.1507 27.816 34.1507 40.416C34.1507 51.648 21.1907 57.84 0.0226563 47.472ZM58.8697 52.512C48.0697 52.512 39.0697 43.368 39.0697 32.28C39.0697 20.112 48.8617 12.12 58.8697 12.12C65.8537 12.12 72.3337 15.864 75.1417 21.192L69.8857 26.16C67.7257 21.192 62.6857 19.32 59.0857 19.32C52.8937 19.32 46.2697 24.072 46.2697 32.28C46.2697 39.408 52.0297 45.312 59.0857 45.312C63.9097 45.312 68.4457 42.288 69.9577 38.544L75.2137 43.44C72.3337 48.84 65.8537 52.512 58.8697 52.512ZM99.9407 51.144C89.0687 51.144 80.2847 42.36 80.2847 31.56C80.2847 20.76 89.0687 11.976 99.9407 11.976C110.669 11.976 119.453 20.76 119.453 31.56V51.216H112.253V44.304C109.805 48.336 105.197 51.144 99.9407 51.144ZM99.9407 43.944C106.709 43.944 112.253 38.4 112.253 31.56C112.253 24.72 106.709 19.176 99.9407 19.176C93.0287 19.176 87.4847 24.72 87.4847 31.56C87.4847 38.4 93.0287 43.944 99.9407 43.944ZM129.77 51V27.6C129.77 18.888 135.17 12.192 144.098 12.192C148.85 12.264 152.738 14.496 154.826 17.736C156.986 14.424 160.874 12.192 165.626 12.192C174.554 12.264 179.954 18.888 179.882 27.6V51H172.682V27.6C172.682 23.136 170.018 19.392 165.626 19.392C161.162 19.392 158.426 23.208 158.426 27.6V51H151.226V27.6C151.226 23.136 148.562 19.392 144.098 19.392C139.706 19.392 136.97 23.208 136.97 27.6V51H129.77ZM192.233 51C190.289 51 188.705 49.416 188.705 47.472C188.705 45.456 190.289 43.872 192.233 43.872C194.249 43.872 195.833 45.456 195.833 47.472C195.833 49.416 194.249 51 192.233 51ZM222.777 51.144C211.905 51.144 203.121 42.36 203.121 31.56C203.121 20.76 211.905 11.976 222.777 11.976C233.505 11.976 242.289 20.76 242.289 31.56V51.216H235.089V44.304C232.641 48.336 228.033 51.144 222.777 51.144ZM222.777 43.944C229.545 43.944 235.089 38.4 235.089 31.56C235.089 24.72 229.545 19.176 222.777 19.176C215.865 19.176 210.321 24.72 210.321 31.56C210.321 38.4 215.865 43.944 222.777 43.944ZM255.774 8.52C253.614 8.52 251.742 6.504 251.742 4.416C251.742 2.184 253.614 0.311996 255.774 0.311996C258.078 0.311996 259.95 2.184 259.95 4.416C259.95 6.504 258.078 8.52 255.774 8.52ZM252.39 51V13.056H259.158V51H252.39Z" fill="#1E1E1E"/>
</svg>